# xmcd
# 
# Track frame offsets:
#     150
#     23829
#     51057
#     76218
#     100513
# 
# Disc length: 1687
# 
# Revision: 0
# Processed by: cddbd v1.5.2PL0 Copyright (c) Steve Scherf et al.
# Submitted via: fre:ac v1.0.17
# 
DISCID=2b069505
DTITLE=コブクロ - 未来
DYEAR=2016
DGENRE=JPop
TTITLE0=未来
TTITLE1=桜
TTITLE2=今と未来を繋ぐもの
TTITLE3=未来(Acoustic ver)
TTITLE4=未来(LIVE ver)
EXTD=
EXTT0=
EXTT1=
EXTT2=
EXTT3=
EXTT4=
PLAYORDER=
